<svg preserveAspectRatio="none" overflow="visible" style="display: block;" width="20" height="20" viewBox="0 0 20 20" fill="none" xmlns="http://www.w3.org/2000/svg">
<g id="icon/bell">
<path id="Vector" d="M5.00023 7.5C5.00023 6.17392 5.52702 4.90215 6.4647 3.96447C7.40238 3.02678 8.67415 2.5 10.0002 2.5C11.3263 2.5 12.5981 3.02678 13.5358 3.96447C14.4734 4.90215 15.0002 6.17392 15.0002 7.5C15.0002 11.6667 16.6669 12.5 16.6669 12.5H3.33357C3.33357 12.5 5.00023 11.6667 5.00023 7.5Z" stroke="#0D1B3D" stroke-width="1.5" stroke-linecap="round" stroke-linejoin="round"/>
<path id="Vector_2" d="M8.33357 16.6666C8.33357 17.1086 8.50916 17.5326 8.82172 17.8451C9.13428 18.1577 9.5582 18.3333 10.0002 18.3333C10.4423 18.3333 10.8662 18.1577 11.1787 17.8451C11.4913 17.5326 11.6669 17.1086 11.6669 16.6666" stroke="#0D1B3D" stroke-width="1.5" stroke-linecap="round" stroke-linejoin="round"/>
</g>
</svg>
